# xmcd CD database file
#
# Track frame offsets:
#	150
#	13008
#	29120
#	41915
#	55362
#	66872
#	80733
#	91986
#	104195
#	117031
#	138801
#
# Disc length: 2035 seconds
#
# Revision: 3
# Processed by: cddbd v1.5.2PL0 Copyright (c) Steve Scherf et al.
# Submitted via: CDex 2.21
#
DISCID=9e07f10b
DTITLE=Tanya Tucker - The best of Tanya Tucker
DYEAR=2000
DGENRE=Country
TTITLE0=Can I See You Tonight
TTITLE1=Dancing The Night Away
TTITLE2=Don't Believe My Heart Can Stan
TTITLE3=Here's Some Love
TTITLE4=It's A Cowboy Lovin' Night
TTITLE5=Lizzie And The Rainman
TTITLE6=Pecos Promenade (From Smokey An
TTITLE7=Ridin' Rainbows
TTITLE8=San Antonio Stroll
TTITLE9=Texas (When I Die)
TTITLE10=You've Got Me To Hold On To
EXTD=YEAR: 2000
EXTT0=
EXTT1=
EXTT2=
EXTT3=
EXTT4=
EXTT5=
EXTT6=
EXTT7=
EXTT8=
EXTT9=
EXTT10=
PLAYORDER=
